<?xml version="1.0" encoding="UTF-8"?>
<!DOCTYPE svg PUBLIC "-//W3C//DTD SVG 1.1//EN" "http://www.w3.org/Graphics/SVG/1.1/DTD/svg11.dtd">
<!-- Creator: CorelDRAW X8 -->
<svg xmlns="http://www.w3.org/2000/svg" xml:space="preserve" width="210mm" height="297mm" version="1.1" style="shape-rendering:geometricPrecision; text-rendering:geometricPrecision; image-rendering:optimizeQuality; fill-rule:evenodd; clip-rule:evenodd"
viewBox="0 0 21000 29700"
 xmlns:xlink="http://www.w3.org/1999/xlink">
 <defs>
  <style type="text/css">
   <![CDATA[
    .str1 {stroke:#A2D9F7;stroke-width:0.25}
    .str0 {stroke:#69F0AE;stroke-width:0.25}
    .fil1 {fill:#00E676;fill-rule:nonzero}
    .fil0 {fill:#69F0AE;fill-rule:nonzero}
    .fil2 {fill:#B9F6CA;fill-rule:nonzero}
   ]]>
  </style>
 </defs>
 <g id="Camada_x0020_1">
  <metadata id="CorelCorpID_0Corel-Layer"/>
  <g id="_638213464">
   <path class="fil0 str0" d="M10141 11248l8162 0 -3379 -4783 -4783 4783zm8162 0l-3379 -4783 3379 0 0 4783z"/>
   <path class="fil0 str1" d="M8160 13229l4783 0 -2802 -1981 -1981 1981zm4783 0l-2802 -1981 4783 0 -1981 1981z"/>
   <path class="fil0 str0" d="M14924 15210l3379 0 -3379 -3962 0 3962zm3379 0l-3379 -3962 3379 0 0 3962z"/>
   <path class="fil0 str1" d="M10141 15210l4783 0 -6764 -1981 1981 1981zm4783 0l-6764 -1981 4783 0 1981 1981z"/>
   <path class="fil0 str0" d="M14924 19993l3379 0 -8162 -4783 4783 4783zm3379 0l-8162 -4783 8162 0 0 4783z"/>
   <path class="fil1" d="M6178 6465l0 6764 6765 0 -6765 -6764zm0 6764l6765 0 -6765 6764 0 -6764z"/>
   <path class="fil2" d="M2799 19993l3379 0 -3379 -13528 0 13528zm3379 0l-3379 -13528 3379 0 0 13528z"/>
  </g>
 </g>
</svg>
