<?xml version="1.0" encoding="UTF-8"?>
<!DOCTYPE svg PUBLIC "-//W3C//DTD SVG 1.1//EN" "http://www.w3.org/Graphics/SVG/1.1/DTD/svg11.dtd">
<!-- Creator: CorelDRAW X8 -->
<svg xmlns="http://www.w3.org/2000/svg" xml:space="preserve" width="210mm" height="297mm" version="1.1" style="shape-rendering:geometricPrecision; text-rendering:geometricPrecision; image-rendering:optimizeQuality; fill-rule:evenodd; clip-rule:evenodd"
viewBox="0 0 21000 29700"
 xmlns:xlink="http://www.w3.org/1999/xlink">
 <defs>
  <style type="text/css">
   <![CDATA[
    .str0 {stroke:#FEFEFE;stroke-width:0.01}
    .fil0 {fill:#FEFEFE;fill-rule:nonzero}
   ]]>
  </style>
 </defs>
 <g id="Camada_x0020_1">
  <metadata id="CorelCorpID_0Corel-Layer"/>
  <g id="_643015568">
   <path class="fil0 str0" d="M10763 10868l8050 0 -3333 -4717 -4717 4717zm8050 0l-3333 -4717 3333 0 0 4717z"/>
   <path class="fil0 str0" d="M8809 12822l4717 0 -2763 -1954 -1954 1954zm4717 0l-2763 -1954 4717 0 -1954 1954z"/>
   <path class="fil0 str0" d="M15480 14776l3333 0 -3333 -3908 0 3908zm3333 0l-3333 -3908 3333 0 0 3908z"/>
   <path class="fil0 str0" d="M10763 14776l4717 0 -6671 -1954 1954 1954zm4717 0l-6671 -1954 4717 0 1954 1954z"/>
   <path class="fil0 str0" d="M15480 19493l3333 0 -8050 -4717 4717 4717zm3333 0l-8050 -4717 8050 0 0 4717z"/>
   <path class="fil0 str0" d="M6855 6151l0 6671 6671 0 -6671 -6671zm0 6671l6671 0 -6671 6671 0 -6671z"/>
   <path class="fil0 str0" d="M3522 19493l3333 0 -3333 -13342 0 13342zm3333 0l-3333 -13342 3333 0 0 13342z"/>
  </g>
 </g>
</svg>
