<?xml version="1.0" encoding="UTF-8"?>
<!DOCTYPE svg PUBLIC "-//W3C//DTD SVG 1.1//EN" "http://www.w3.org/Graphics/SVG/1.1/DTD/svg11.dtd">
<!-- Creator: CorelDRAW X8 -->
<svg xmlns="http://www.w3.org/2000/svg" xml:space="preserve" width="210mm" height="297mm" version="1.1" style="shape-rendering:geometricPrecision; text-rendering:geometricPrecision; image-rendering:optimizeQuality; fill-rule:evenodd; clip-rule:evenodd"
viewBox="0 0 21000 29700"
 xmlns:xlink="http://www.w3.org/1999/xlink">
 <defs>
  <style type="text/css">
   <![CDATA[
    .str1 {stroke:#A2D9F7;stroke-width:0.25}
    .str0 {stroke:#69F0AE;stroke-width:0.25}
    .fil0 {fill:#5B5B5B;fill-rule:nonzero}
    .fil2 {fill:#00E676;fill-rule:nonzero}
    .fil1 {fill:#69F0AE;fill-rule:nonzero}
    .fil3 {fill:#B9F6CA;fill-rule:nonzero}
   ]]>
  </style>
 </defs>
 <g id="Camada_x0020_1">
  <metadata id="CorelCorpID_0Corel-Layer"/>
  <path class="fil0" d="M6553 25240l-747 0 0 -2671c0,-53 -9,-101 -30,-146 -20,-46 -47,-85 -81,-119 -34,-34 -73,-60 -118,-80 -46,-19 -95,-28 -146,-28 -53,0 -101,9 -147,28 -45,20 -84,46 -119,80 -34,34 -60,73 -79,119 -19,45 -29,93 -29,146l0 2671 -749 0 0 -2671c0,-53 -9,-101 -28,-146 -20,-46 -45,-85 -79,-119 -35,-34 -74,-60 -120,-80 -45,-19 -93,-28 -146,-28 -51,0 -100,9 -146,28 -45,20 -84,46 -118,80 -34,34 -61,73 -80,119 -19,45 -29,93 -29,146l0 2671 -749 0 0 -2671c0,-155 30,-300 88,-437 58,-137 139,-256 240,-358 102,-101 221,-181 357,-240 137,-58 282,-87 437,-87 139,0 274,25 402,75 129,48 245,121 347,214 103,-93 218,-166 346,-214 128,-50 262,-75 401,-75 154,0 300,29 437,87 136,59 255,139 357,240 101,102 182,221 239,358 59,137 89,282 89,437l0 2671zm3618 -1495c0,208 -39,402 -118,583 -78,182 -185,341 -320,475 -136,135 -295,241 -477,320 -181,78 -376,117 -582,117 -208,0 -402,-39 -583,-117 -182,-79 -341,-185 -475,-320 -135,-134 -241,-293 -320,-475 -78,-181 -117,-375 -117,-583l0 -2246 746 0 0 2246c0,103 19,200 59,290 39,90 92,170 160,237 68,68 147,121 239,161 90,39 188,58 291,58 102,0 199,-19 290,-58 92,-40 171,-93 239,-161 67,-67 121,-147 160,-237 39,-90 59,-187 59,-290l0 -2246 749 0 0 2246zm431 -1124c0,-155 29,-300 88,-436 60,-135 140,-254 241,-356 102,-102 221,-182 356,-242 136,-58 282,-88 436,-88l1717 0 0 749 -1717 0c-52,0 -101,9 -146,29 -46,18 -85,45 -119,79 -33,34 -60,74 -79,118 -19,46 -29,95 -29,147 0,52 10,101 29,147 19,47 46,87 79,120 34,34 73,61 119,80 45,19 94,28 146,28l749 0c155,0 301,30 437,88 136,58 256,138 357,240 102,101 182,221 241,357 58,137 87,282 87,437 0,155 -29,300 -87,437 -59,135 -139,253 -241,355 -101,102 -221,182 -357,241 -136,60 -282,89 -437,89l-1662 0 0 -749 1662 0c52,0 100,-9 146,-28 45,-20 84,-46 119,-79 34,-34 60,-74 79,-120 19,-44 29,-93 29,-146 0,-51 -10,-100 -29,-146 -19,-45 -45,-84 -79,-118 -35,-34 -74,-61 -119,-79 -46,-20 -94,-30 -146,-30l-749 0c-154,0 -300,-29 -436,-88 -135,-60 -254,-140 -356,-241 -101,-103 -181,-221 -241,-358 -59,-137 -88,-283 -88,-437zm4231 2619l-748 0 0 -3741 748 0 0 3741zm3600 0l-907 0 -721 -1207 -722 1207 -903 0 1148 -1871 -1148 -1870 903 0 722 1208 721 -1208 907 0 -1148 1870 1148 1871z"/>
  <g id="_638213104">
   <path class="fil1 str0" d="M10141 11248l8162 0 -3379 -4783 -4783 4783zm8162 0l-3379 -4783 3379 0 0 4783z"/>
   <path class="fil1 str1" d="M8160 13229l4783 0 -2802 -1981 -1981 1981zm4783 0l-2802 -1981 4783 0 -1981 1981z"/>
   <path class="fil1 str0" d="M14924 15210l3379 0 -3379 -3962 0 3962zm3379 0l-3379 -3962 3379 0 0 3962z"/>
   <path class="fil1 str1" d="M10141 15210l4783 0 -6764 -1981 1981 1981zm4783 0l-6764 -1981 4783 0 1981 1981z"/>
   <path class="fil1 str0" d="M14924 19993l3379 0 -8162 -4783 4783 4783zm3379 0l-8162 -4783 8162 0 0 4783z"/>
   <path class="fil2" d="M6178 6465l0 6764 6765 0 -6765 -6764zm0 6764l6765 0 -6765 6764 0 -6764z"/>
   <path class="fil3" d="M2799 19993l3379 0 -3379 -13528 0 13528zm3379 0l-3379 -13528 3379 0 0 13528z"/>
  </g>
 </g>
</svg>
