<?xml version="1.0" encoding="UTF-8"?>
<!DOCTYPE svg PUBLIC "-//W3C//DTD SVG 1.1//EN" "http://www.w3.org/Graphics/SVG/1.1/DTD/svg11.dtd">
<!-- Creator: CorelDRAW X8 -->
<svg xmlns="http://www.w3.org/2000/svg" xml:space="preserve" width="297mm" height="100mm" version="1.1" style="shape-rendering:geometricPrecision; text-rendering:geometricPrecision; image-rendering:optimizeQuality; fill-rule:evenodd; clip-rule:evenodd"
viewBox="0 0 29700 10000"
 xmlns:xlink="http://www.w3.org/1999/xlink">
 <defs>
  <style type="text/css">
   <![CDATA[
    .str1 {stroke:#A2D9F7;stroke-width:0.25}
    .str0 {stroke:#69F0AE;stroke-width:0.25}
    .fil0 {fill:#5B5B5B;fill-rule:nonzero}
    .fil2 {fill:#00E676;fill-rule:nonzero}
    .fil1 {fill:#69F0AE;fill-rule:nonzero}
    .fil3 {fill:#B9F6CA;fill-rule:nonzero}
   ]]>
  </style>
 </defs>
 <g id="Camada_x0020_1">
  <metadata id="CorelCorpID_0Corel-Layer"/>
  <path class="fil0" d="M15968 9283l-746 0 0 -2671c0,-53 -10,-101 -31,-146 -19,-46 -47,-85 -81,-119 -33,-34 -73,-60 -118,-80 -45,-19 -94,-29 -146,-29 -53,0 -101,10 -146,29 -45,20 -85,46 -119,80 -34,34 -60,73 -80,119 -18,45 -28,93 -28,146l0 2671 -749 0 0 -2671c0,-53 -10,-101 -29,-146 -19,-46 -45,-85 -79,-119 -35,-34 -74,-60 -119,-80 -46,-19 -94,-29 -146,-29 -52,0 -101,10 -146,29 -46,20 -85,46 -119,80 -34,34 -60,73 -80,119 -19,45 -28,93 -28,146l0 2671 -749 0 0 -2671c0,-155 29,-300 88,-438 58,-136 138,-255 239,-357 102,-101 221,-181 358,-240 137,-58 282,-87 437,-87 139,0 273,24 401,74 130,49 245,121 348,215 102,-94 218,-166 345,-215 128,-50 262,-74 401,-74 155,0 300,29 437,87 136,59 256,139 357,240 102,102 182,221 240,357 59,138 88,283 88,438l0 2671zm3618 -1495c0,207 -39,402 -117,583 -79,182 -186,340 -321,475 -135,135 -295,241 -476,320 -182,78 -376,117 -583,117 -207,0 -401,-39 -583,-117 -182,-79 -340,-185 -475,-320 -135,-135 -241,-293 -319,-475 -79,-181 -118,-376 -118,-583l0 -2246 746 0 0 2246c0,102 20,199 59,289 39,91 93,170 160,238 68,68 147,121 239,160 91,40 188,59 291,59 103,0 200,-19 291,-59 91,-39 171,-92 238,-160 68,-68 121,-147 160,-238 40,-90 59,-187 59,-289l0 -2246 749 0 0 2246zm431 -1124c0,-155 30,-300 88,-436 60,-136 140,-254 242,-356 101,-102 221,-182 356,-242 135,-59 281,-88 435,-88l1717 0 0 749 -1717 0c-51,0 -100,9 -146,29 -45,18 -84,45 -118,79 -34,34 -61,74 -79,118 -20,46 -30,95 -30,147 0,52 10,101 30,147 18,46 45,86 79,120 34,34 73,61 118,80 46,19 95,28 146,28l749 0c155,0 301,29 438,88 136,58 255,138 357,240 101,101 181,221 240,357 58,137 87,282 87,437 0,155 -29,300 -87,436 -59,136 -139,254 -240,356 -102,102 -221,182 -357,241 -137,60 -283,89 -438,89l-1661 0 0 -749 1661 0c53,0 101,-10 146,-28 46,-20 85,-46 120,-80 34,-33 59,-73 79,-119 19,-44 28,-93 28,-146 0,-52 -9,-101 -28,-146 -20,-45 -45,-85 -79,-118 -35,-34 -74,-61 -120,-80 -45,-19 -93,-29 -146,-29l-749 0c-154,0 -300,-29 -435,-88 -135,-60 -255,-140 -356,-242 -102,-102 -182,-220 -242,-357 -58,-137 -88,-283 -88,-437zm4231 2619l-748 0 0 -3741 748 0 0 3741zm3600 0l-907 0 -720 -1207 -723 1207 -903 0 1148 -1871 -1148 -1870 903 0 723 1208 720 -1208 907 0 -1147 1870 1147 1871z"/>
  <g id="_639115824">
   <path class="fil1 str0" d="M5733 3948l4979 0 -2061 -2917 -2918 2917zm4979 0l-2061 -2917 2061 0 0 2917z"/>
   <path class="fil1 str1" d="M4524 5157l2918 0 -1709 -1209 -1209 1209zm2918 0l-1709 -1209 2918 0 -1209 1209z"/>
   <path class="fil1 str0" d="M8651 6366l2061 0 -2061 -2418 0 2418zm2061 0l-2061 -2418 2061 0 0 2418z"/>
   <path class="fil1 str1" d="M5733 6366l2918 0 -4127 -1209 1209 1209zm2918 0l-4127 -1209 2918 0 1209 1209z"/>
   <path class="fil1 str0" d="M8651 9283l2061 0 -4979 -2917 2918 2917zm2061 0l-4979 -2917 4979 0 0 2917z"/>
   <path class="fil2" d="M3316 1031l0 4126 4126 0 -4126 -4126zm0 4126l4126 0 -4126 4126 0 -4126z"/>
   <path class="fil3" d="M1254 9283l2062 0 -2062 -8252 0 8252zm2062 0l-2062 -8252 2062 0 0 8252z"/>
  </g>
 </g>
</svg>
