<?xml version="1.0" encoding="UTF-8"?>
<!DOCTYPE svg PUBLIC "-//W3C//DTD SVG 1.1//EN" "http://www.w3.org/Graphics/SVG/1.1/DTD/svg11.dtd">
<!-- Creator: CorelDRAW X8 -->
<svg xmlns="http://www.w3.org/2000/svg" xml:space="preserve" width="210mm" height="297mm" version="1.1" style="shape-rendering:geometricPrecision; text-rendering:geometricPrecision; image-rendering:optimizeQuality; fill-rule:evenodd; clip-rule:evenodd"
viewBox="0 0 21000 29700"
 xmlns:xlink="http://www.w3.org/1999/xlink">
 <defs>
  <style type="text/css">
   <![CDATA[
    .str0 {stroke:#FEFEFE;stroke-width:0.01}
    .fil0 {fill:#FEFEFE;fill-rule:nonzero}
   ]]>
  </style>
 </defs>
 <g id="Camada_x0020_1">
  <metadata id="CorelCorpID_0Corel-Layer"/>
  <path class="fil0 str0" d="M7142 24715l-736 0 0 -2635c0,-52 -10,-99 -30,-144 -19,-45 -47,-83 -80,-117 -33,-33 -72,-59 -117,-79 -45,-18 -93,-28 -144,-28 -52,0 -99,10 -144,28 -45,20 -83,46 -117,79 -34,34 -59,72 -79,117 -18,45 -28,92 -28,144l0 2635 -738 0 0 -2635c0,-52 -10,-99 -29,-144 -19,-45 -44,-83 -78,-117 -34,-33 -73,-59 -117,-79 -45,-18 -93,-28 -144,-28 -51,0 -100,10 -144,28 -45,20 -84,46 -117,79 -34,34 -60,72 -79,117 -19,45 -28,92 -28,144l0 2635 -739 0 0 -2635c0,-153 29,-296 87,-431 57,-134 136,-252 236,-352 100,-100 218,-179 352,-237 136,-57 279,-86 432,-86 137,0 269,24 396,73 127,49 241,120 342,212 101,-92 215,-163 341,-212 126,-49 258,-73 395,-73 153,0 296,29 431,86 135,58 253,137 353,237 100,100 179,218 236,352 58,135 87,278 87,431l0 2635zm3568 -1475c0,205 -38,396 -116,576 -77,179 -182,335 -316,468 -133,133 -290,238 -470,315 -179,77 -370,116 -574,116 -205,0 -396,-39 -575,-116 -179,-77 -336,-182 -468,-315 -134,-133 -238,-289 -316,-468 -77,-180 -116,-371 -116,-576l0 -2215 736 0 0 2215c0,101 20,197 58,286 39,89 92,168 158,234 67,67 145,120 236,158 89,39 185,58 287,58 101,0 197,-19 286,-58 91,-38 169,-91 236,-158 66,-66 119,-145 158,-234 38,-89 58,-185 58,-286l0 -2215 738 0 0 2215zm425 -1108c0,-153 29,-296 87,-430 59,-134 138,-251 238,-352 101,-100 218,-179 352,-238 133,-58 277,-87 429,-87l1694 0 0 739 -1694 0c-51,0 -99,9 -144,28 -45,19 -83,45 -117,78 -33,34 -59,73 -78,117 -19,45 -29,93 -29,145 0,51 10,99 29,145 19,46 45,85 78,118 34,34 72,60 117,79 45,19 93,28 144,28l739 0c153,0 297,29 431,87 134,57 252,136 352,236 100,100 179,218 237,352 58,135 87,279 87,431 0,153 -29,296 -87,431 -58,133 -137,250 -237,350 -100,101 -218,180 -352,238 -134,59 -278,88 -431,88l-1639 0 0 -739 1639 0c52,0 99,-9 144,-28 45,-19 83,-45 118,-78 33,-33 58,-73 78,-118 18,-43 28,-92 28,-144 0,-51 -10,-99 -28,-144 -20,-44 -45,-83 -78,-116 -35,-34 -73,-60 -118,-79 -45,-19 -92,-29 -144,-29l-739 0c-152,0 -296,-29 -429,-87 -134,-58 -251,-137 -352,-238 -100,-101 -179,-217 -238,-353 -58,-134 -87,-278 -87,-430zm4173 2583l-738 0 0 -3690 738 0 0 3690zm3551 0l-895 0 -710 -1191 -713 1191 -890 0 1132 -1845 -1132 -1845 890 0 713 1191 710 -1191 895 0 -1132 1845 1132 1845z"/>
  <g id="_642658096">
   <path class="fil0 str0" d="M10763 10868l8050 0 -3333 -4717 -4717 4717zm8050 0l-3333 -4717 3333 0 0 4717z"/>
   <path class="fil0 str0" d="M8809 12822l4717 0 -2763 -1954 -1954 1954zm4717 0l-2763 -1954 4717 0 -1954 1954z"/>
   <path class="fil0 str0" d="M15480 14776l3333 0 -3333 -3908 0 3908zm3333 0l-3333 -3908 3333 0 0 3908z"/>
   <path class="fil0 str0" d="M10763 14776l4717 0 -6671 -1954 1954 1954zm4717 0l-6671 -1954 4717 0 1954 1954z"/>
   <path class="fil0 str0" d="M15480 19493l3333 0 -8050 -4717 4717 4717zm3333 0l-8050 -4717 8050 0 0 4717z"/>
   <path class="fil0 str0" d="M6855 6151l0 6671 6671 0 -6671 -6671zm0 6671l6671 0 -6671 6671 0 -6671z"/>
   <path class="fil0 str0" d="M3522 19493l3333 0 -3333 -13342 0 13342zm3333 0l-3333 -13342 3333 0 0 13342z"/>
  </g>
 </g>
</svg>
